<svg xmlns="http://www.w3.org/2000/svg" fill="none" viewBox="52.5 50.5 395 398.85">
<path d="M197.686 109.565V183.403H113.08C94.6204 183.403 60.624 204.939 60.0087 241.858C59.3934 278.777 91.5438 299.293 113.08 302.621C141.282 306.979 215.377 306.969 255.373 287.238C301.522 264.471 313.059 208.528 313.059 183.403V109.565C310.495 91.8741 295.368 56.8009 255.373 58.0316C215.377 59.2622 200.25 92.8997 197.686 109.565Z" stroke="url(#paint0_linear_5_25)" stroke-width="15"/>
<path d="M388.435 304.159H314.597V388.766C314.597 407.225 293.061 441.222 256.142 441.837C219.223 442.452 198.707 410.302 195.379 388.766C191.021 360.564 191.031 286.469 210.762 246.473C233.529 200.324 289.472 188.787 314.597 188.787H388.435C406.126 191.351 441.199 206.477 439.968 246.473C438.738 286.469 405.1 301.595 388.435 304.159Z" stroke="url(#paint1_linear_5_25)" stroke-width="15"/>
<defs>
<linearGradient id="paint0_linear_5_25" x1="61.7437" y1="58" x2="311.315" y2="304.96" gradientUnits="userSpaceOnUse">
<stop stop-color="#5EA9FF"/>
<stop offset="1" stop-color="#0061CF"/>
</linearGradient>
<linearGradient id="paint1_linear_5_25" x1="404.69" y1="441.846" x2="228.35" y2="188.787" gradientUnits="userSpaceOnUse">
<stop stop-color="#5EA9FF"/>
<stop offset="1" stop-color="#0061CF"/>
</linearGradient>
</defs>
</svg>